<svg width="1000" height="1000" viewBox="0 0 1000 1000" fill="none" xmlns="http://www.w3.org/2000/svg">
<rect width="1000" height="1000" rx="500" fill="#0F172A"/>
<g filter="url(#filter0_d_56_11)">
<path d="M666.5 486.105H527.75V347.158H666.5M624.875 652.842C613.835 652.842 603.248 648.45 595.442 640.633C587.635 632.816 583.25 622.213 583.25 611.158C583.25 600.103 587.635 589.5 595.442 581.683C603.248 573.865 613.835 569.474 624.875 569.474C635.915 569.474 646.502 573.865 654.308 581.683C662.115 589.5 666.5 600.103 666.5 611.158C666.5 622.213 662.115 632.816 654.308 640.633C646.502 648.45 635.915 652.842 624.875 652.842ZM472.25 486.105H333.5V347.158H472.25M375.125 652.842C364.085 652.842 353.498 648.45 345.692 640.633C337.885 632.816 333.5 622.213 333.5 611.158C333.5 600.103 337.885 589.5 345.692 581.683C353.498 573.865 364.085 569.474 375.125 569.474C386.165 569.474 396.752 573.865 404.558 581.683C412.365 589.5 416.75 600.103 416.75 611.158C416.75 622.213 412.365 632.816 404.558 640.633C396.752 648.45 386.165 652.842 375.125 652.842ZM500 236C377.345 236 278 249.895 278 347.158V611.158C278 636.954 288.233 661.693 306.447 679.933C324.662 698.174 349.366 708.421 375.125 708.421L333.5 750.105V764H666.5V750.105L624.875 708.421C650.634 708.421 675.338 698.174 693.553 679.933C711.767 661.693 722 636.954 722 611.158V347.158C722 249.895 622.655 236 500 236Z" fill="#5046E5"/>
</g>
<defs>
<filter id="filter0_d_56_11" x="263.6" y="221.6" width="472.8" height="556.8" filterUnits="userSpaceOnUse" color-interpolation-filters="sRGB">
<feFlood flood-opacity="0" result="BackgroundImageFix"/>
<feColorMatrix in="SourceAlpha" type="matrix" values="0 0 0 0 0 0 0 0 0 0 0 0 0 0 0 0 0 0 127 0" result="hardAlpha"/>
<feOffset/>
<feGaussianBlur stdDeviation="7.2"/>
<feComposite in2="hardAlpha" operator="out"/>
<feColorMatrix type="matrix" values="0 0 0 0 0.313726 0 0 0 0 0.27451 0 0 0 0 0.898039 0 0 0 1 0"/>
<feBlend mode="normal" in2="BackgroundImageFix" result="effect1_dropShadow_56_11"/>
<feBlend mode="normal" in="SourceGraphic" in2="effect1_dropShadow_56_11" result="shape"/>
</filter>
</defs>
</svg>
