<svg width="1032" height="1141" viewBox="0 0 1032 1141" fill="none" xmlns="http://www.w3.org/2000/svg">
<path d="M488.98 839.542C536.341 849.424 575.018 835.831 606.342 800.415C607.88 798.677 609.261 796.755 611 795.245C617.838 789.307 626.638 789.176 632.718 794.766C638.22 799.825 639.348 809.086 634.156 815.687C628.621 822.723 622.5 829.422 615.913 835.485C587.525 861.618 553.743 875.299 515.279 874.916C476.841 874.534 443.289 860.308 415.371 833.674C408.902 827.502 402.425 821.001 397.521 813.61C391.201 804.084 397.161 792.664 408.283 791.114C415.236 790.146 420.75 793.063 424.811 798.403C435.531 812.496 449.331 822.759 464.997 830.483C472.387 834.127 480.418 836.471 488.98 839.542Z" fill="currentColor"/>
<path d="M456.452 710.155C457.253 714.179 458.262 717.446 458.308 720.726C458.428 729.32 453.147 735.709 445.24 737.153C437.95 738.485 430.092 733.489 427.444 725.758C427.018 724.516 426.977 723.146 426.669 721.857C424.58 713.108 418.364 707.878 409.796 707.628C401.227 707.378 394.272 713.081 391.946 721.971C391.125 725.107 390.382 728.575 388.504 731.061C384.282 736.65 376.465 738.773 370.621 736.735C364.274 734.523 360.905 729.107 360.803 720.952C360.547 700.534 378.315 680.903 400.361 677.248C424.686 673.215 445.581 685.243 456.452 710.155Z" fill="currentColor"/>
<path d="M641.589 679.859C659.422 687.929 669.876 700.669 671.267 719.81C672.002 729.924 667.481 736.088 659.108 737.404C651.062 738.669 644.196 733.653 641.685 724.643C641.151 722.725 640.936 720.691 640.199 718.861C637.481 712.116 630.729 707.674 623.806 707.882C615.97 708.118 609.164 712.637 606.673 719.45C605.878 721.627 605.64 724.004 604.882 726.198C602.095 734.257 594.994 738.67 587.164 737.338C579.848 736.094 574.948 729.855 574.757 721.542C574.368 704.646 589.61 684.899 607.519 679.265C618.633 675.769 629.765 675.668 641.589 679.859Z" fill="currentColor"/>
<path d="M812.277 439.809C810.907 443.729 809.75 446.812 808.563 449.975C815.953 458.408 823.245 466.613 830.413 474.926C882.93 535.842 914.597 606.313 924.912 685.926C933.359 751.127 925.868 814.93 902.524 876.504C884.278 924.629 857.757 967.946 822.965 1005.91C781.914 1050.7 733.225 1084.74 677.335 1108.85C617.65 1134.6 555.386 1143.33 490.934 1140.09C424.801 1136.76 363.345 1117.65 306.431 1084.42C246.989 1049.71 198.766 1002.92 162.779 944.138C132.145 894.101 112.704 839.767 106.245 781.374C99.2908 718.505 106.553 657.052 128.809 597.652C149.314 542.924 180.976 495.266 221.271 453.166C222.175 452.222 223.008 451.21 224.19 449.872C218.816 443.613 218.164 436.16 218.195 428.388C218.384 380.397 218.444 332.406 218.546 284.415C218.551 281.807 218.546 279.199 218.546 276.114C200.157 269.707 182.307 263.513 164.473 257.271C126.531 243.992 88.6084 230.659 50.6537 217.417C40.9399 214.028 31.1163 210.954 21.3822 207.622C17.2964 206.223 13.1712 204.815 9.30749 202.916C-3.45526 196.642 -2.2464 180.099 7.80041 175.608C12.3238 173.586 16.7286 171.218 21.3952 169.611C60.3622 156.187 99.4229 143.034 138.366 129.541C176.06 116.48 213.614 103.017 251.294 89.9151C275.486 81.503 299.824 73.5079 324.043 65.1731C349.508 56.4096 374.924 47.4995 400.338 38.5891C434.861 26.4853 469.484 14.6514 503.799 1.98228C514.23 -1.86927 523.34 0.519508 532.779 3.82383C569.186 16.5686 605.527 29.5029 641.958 42.177C685.917 57.47 729.96 72.5226 773.937 87.7667C825.451 105.624 876.927 123.594 928.432 141.479C957.318 151.51 986.237 161.449 1015.12 171.492C1018.25 172.579 1021.45 173.724 1024.24 175.461C1034.67 181.966 1034.24 196.435 1023.44 202.388C1020.27 204.138 1016.71 205.241 1013.26 206.449C974.354 220.081 935.454 233.741 896.505 247.259C870.456 256.3 844.331 265.119 818.247 274.061C816.698 274.592 815.222 275.337 813.131 276.23C813.131 279.815 813.13 283.443 813.131 287.071C813.146 334.729 813.174 382.387 813.147 430.045C813.145 433.021 812.719 435.996 812.277 439.809ZM479.797 911.195C480.382 911.931 480.967 912.667 479.843 913.642C438.284 917.163 397.381 924.552 356.879 934.21C356.948 935.11 356.86 935.819 357.068 936.427C368.833 970.829 382.822 1004.21 403.173 1034.55C419.466 1058.85 438.551 1080.45 464.252 1095.33C474.951 1101.53 486.247 1105.94 499.831 1106.91C499.831 1042.27 499.831 978.133 499.831 914.281C511.027 914.281 521.176 914.281 531.951 914.281C531.951 978.874 531.951 1042.79 531.951 1108.05C540.497 1105.62 548.377 1104.15 555.651 1101.18C581.75 1090.55 601.182 1071.52 617.986 1049.62C639.852 1021.13 655.572 989.282 667.805 955.641C670.356 948.627 672.68 941.531 675.224 934.137C632.154 923.066 589.326 917.218 544.135 913.118C547.124 911.122 548.09 909.987 549.215 909.798C567.465 906.736 584.525 900.294 600.499 891.156C605.206 888.464 609.608 887.56 614.723 888.537C628.782 891.222 642.875 893.732 656.914 896.522C665.993 898.326 674.998 900.499 684.953 902.711C704.108 826.448 709.302 749.936 702.162 672.143C713.07 672.143 723.224 672.143 734.212 672.143C735.261 688.537 736.277 704.415 737.283 720.135C752.926 722.485 887.945 721.608 895.08 719.22C896.147 663.668 862.881 564.406 832.887 533.847C825.602 537.672 818.386 541.746 810.922 545.299C803.628 548.77 797.04 554.022 788.567 555.377C786.858 544.253 785.259 533.845 783.659 523.433C794.388 517.955 804.325 512.882 815.701 507.074C801.137 491.433 787.798 477.107 774.676 463.015C769.853 464.024 766.071 464.816 762.086 465.65C762.086 454.116 762.086 443.228 762.086 432.348C768.462 430.187 774.372 428.184 779.883 426.316C779.883 379.962 779.883 334.442 779.883 287.67C763.66 293.353 748.465 298.676 732.781 304.171C732.781 308.474 732.784 312.109 732.781 315.744C732.735 368.074 733.373 420.419 732.255 472.726C731.885 490.066 735.417 504.571 746.462 517.746C752.282 524.688 755.891 532.921 756.91 542.2C757.964 551.794 759.493 561.337 760.84 570.898C763.163 587.388 765.723 603.848 767.774 620.371C769.575 634.876 763.455 641.679 749.048 641.773C731.716 641.887 714.383 641.866 697.051 641.882C691.385 641.888 685.696 642.142 680.059 641.724C671.262 641.073 666.025 635.663 665.618 626.892C665.418 622.589 665.71 618.214 666.269 613.935C668.036 600.4 670.249 586.92 671.898 573.372C674.971 548.13 678.265 523.031 696.724 503.262C696.947 503.023 697.173 502.731 697.26 502.425C698.322 498.682 700.26 494.934 700.266 491.184C700.349 435.855 700.175 380.527 700.063 325.198C700.057 322.239 700.063 319.279 700.063 315.434C696.284 316.58 693.45 317.344 690.681 318.294C639.752 335.781 588.627 352.731 538.025 371.12C521.925 376.971 507.723 376.454 491.964 370.696C447.956 354.614 403.555 339.603 359.297 324.207C330.12 314.057 300.929 303.948 271.726 293.874C265.2 291.623 258.596 289.596 251.537 287.307C251.537 333.994 251.537 379.862 251.537 425.922C273.069 433.23 294.108 440.434 315.189 447.515C372.257 466.683 429.348 485.781 486.414 504.954C495.872 508.131 505.217 514.022 514.677 514.153C524.084 514.282 533.597 508.814 543.016 505.66C583.373 492.145 623.709 478.569 664.066 465.056C666.436 464.262 668.924 463.822 671.617 463.153C671.617 472.287 671.373 480.576 671.698 488.842C671.939 494.981 668.964 497.817 663.491 499.536C653.968 502.527 644.597 506 635.134 509.187C600.822 520.744 566.498 532.266 532.603 543.659C532.603 557.285 532.603 570.106 532.603 583.683C569.995 582.181 606.322 579.101 643.826 571.346C641.654 581.851 639.628 590.816 638.001 599.853C637.075 604.999 634.174 607.006 629.231 607.682C600.516 611.608 571.779 615.188 542.751 615.714C539.218 615.778 537.099 615.553 532.8 615.714C522.8 616.086 521.3 615.714 516.3 615.714C512.8 615.714 514.3 615.714 502.3 615.714C499.3 615.714 484.564 616.128 461.8 614.482C435.8 612.603 394.638 607.242 343.022 592.724C320.472 697.001 321.548 799.36 346.295 902.541C350.597 901.699 353.776 901.086 356.952 900.454C376.536 896.558 396.133 892.722 415.694 888.714C420.82 887.664 425.298 888.178 430.028 890.805C445.489 899.392 461.855 905.835 479.797 911.195ZM772.578 255.567C836.209 233.604 899.84 211.64 965.691 188.911C928.659 176.019 893.947 163.899 859.21 151.851C802.972 132.346 746.71 112.907 690.471 93.403C635.186 74.2292 579.887 55.0935 524.683 35.6872C518.631 33.5596 513.281 33.5328 507.343 35.6182C475.966 46.6374 444.502 57.4065 413.092 68.3291C359.705 86.8938 306.353 105.561 252.953 124.087C198.901 142.839 144.8 161.449 90.7421 180.185C83.2704 182.775 75.9253 185.729 66.9994 189.088C69.9667 190.353 71.1205 190.938 72.3334 191.348C94.0523 198.691 115.827 205.872 137.492 213.371C174.86 226.305 212.128 239.53 249.499 252.455C288.136 265.817 326.868 278.901 365.518 292.227C407.621 306.743 449.871 320.868 491.653 336.26C507.666 342.159 521.875 342.776 538.283 336.737C585.36 319.409 633.093 303.862 680.558 287.585C682.661 286.863 684.662 285.844 687.54 284.606C684.839 283.054 682.943 281.751 680.88 280.818C672.103 276.849 663.239 273.071 654.475 269.075C607.909 247.847 561.356 226.593 514.833 205.272C511.836 203.899 508.841 202.229 506.347 200.107C500.987 195.547 499.914 189.454 501.473 182.845C502.963 176.532 507.932 173.375 513.541 172.359C517.13 171.709 521.494 172.835 524.96 174.391C557.712 189.099 590.344 204.075 623.014 218.964C645.097 229.028 667.261 238.916 689.24 249.199C700.333 254.389 711.538 259.589 721.832 266.138C727.293 269.612 731.506 270.348 737.268 268.131C748.428 263.837 759.786 260.057 772.578 255.567ZM715.871 908.723C715.217 912.852 718.73 912.447 720.968 913.334C742.882 922.018 764.978 930.27 786.664 939.489C798.467 944.507 809.579 951.151 821.569 957.354C865.464 896.778 891.403 829.843 895.301 754.106C842.206 754.106 790.035 754.106 737.238 754.106C736.855 759.591 736.374 764.852 736.135 770.123C734.036 816.462 728.765 862.336 715.871 908.723ZM139.494 784.66C148.202 848.53 172.745 905.756 211.047 957.333C244.865 937.923 280.274 924.041 316.135 910.955C301.656 859.128 296.279 806.947 294.435 754.338C241.46 754.338 189.383 754.338 136.433 754.338C137.453 764.383 138.393 773.626 139.494 784.66ZM301.979 580.289C265.883 567.887 231.157 552.414 197.883 532.851C161.946 590.745 138.102 651.527 137.036 720.543C189.836 720.543 241.885 720.543 294.579 720.543C296.313 674.206 301.999 628.819 312.125 584.028C308.417 582.719 305.913 581.835 301.979 580.289ZM745.259 957.036C732.661 952.114 720.064 947.191 708.411 942.638C696.259 969.96 685.253 996.292 672.924 1021.99C660.334 1048.23 642.635 1071.16 623.301 1093.03C692.716 1073.35 750.854 1035.94 800.756 982.209C781.734 973.589 764.191 965.639 745.259 957.036ZM259.061 1009.2C269.547 1017.9 279.667 1027.09 290.587 1035.2C323.383 1059.56 359.452 1077.72 398.299 1090.33C400.505 1091.05 402.914 1091.14 406.142 1091.68C394.157 1075.19 382.211 1060.48 372.219 1044.54C362.38 1028.84 353.866 1012.22 345.979 995.428C338.024 978.498 331.554 960.871 324.48 943.663C297.101 950.564 246.378 972.895 233.812 983.364C241.863 991.651 249.932 999.957 259.061 1009.2ZM440.372 523.778C418.198 516.315 396.024 508.852 373.057 501.122C365.62 521.626 358.547 541.127 351.315 561.066C400.336 575.843 449.304 582.256 499.359 583.555C499.359 569.586 499.359 557.017 499.359 543.782C480.115 537.245 460.993 530.749 440.372 523.778ZM335.551 488.674C311.987 480.566 288.414 472.486 264.871 464.319C261.564 463.172 258.549 462.317 255.717 465.328C243.014 478.84 230.266 492.307 216.754 506.617C251.029 525.109 284.452 541.074 320.543 551.933C327.601 531.384 334.462 511.409 341.486 490.961C339.958 490.39 338.474 489.834 335.551 488.674ZM733.602 604.816C730.942 586.433 728.308 568.047 725.61 549.67C724.529 542.307 721.918 535.603 715.39 528.681C703.773 554.733 704.029 582.098 698.873 609.498C710.575 609.498 721.12 609.553 731.661 609.376C732.364 609.364 733.038 607.598 733.602 604.816Z" fill="currentColor"/>
</svg>
