<svg width="275" height="270" viewBox="0 0 275 270" fill="none" xmlns="http://www.w3.org/2000/svg">
<rect x="-0.000488281" y="1.52588e-05" width="275" height="270" rx="48" fill="#1F1F1F"/>
<path d="M114.511 87.8393L196.881 89.2719C203.903 89.394 209.493 83.4233 208.91 76.4245C208.396 70.2565 203.245 65.5195 197.055 65.5504C170.515 65.6828 133.95 65.9356 110.64 66.2895C96.0221 66.5114 80.3624 70.1564 69.4602 79.896C58.145 90.0045 45.9086 103.86 36.165 115.843C29.0479 124.595 31.1367 141.105 41.8528 144.63C44.7899 145.596 44.362 142.936 45.5646 140.087C51.4893 126.052 66.4898 110.736 79.6309 99.5091C89.2737 91.2713 101.83 87.6188 114.511 87.8393Z" fill="white"/>
<path d="M171.244 184.126L79.1184 182.524C72.0964 182.402 66.5059 188.372 67.0891 195.371C67.6031 201.539 72.7544 206.276 78.9437 206.245C110.355 206.088 155.807 205.763 176.71 205.301C184.018 205.14 191.852 203.378 197.759 199.072C211.16 189.304 227.495 171.126 239.834 155.953C246.951 147.2 244.862 130.691 234.146 127.166C231.209 126.2 231.637 128.86 230.434 131.709C223.329 148.539 203.172 167.214 188.822 178.466C183.832 182.379 177.584 184.236 171.244 184.126Z" fill="white"/>
<path d="M150.796 155.155L157.28 147.737C160.331 144.247 160.524 139.429 157.72 136.72C154.92 134.013 150.087 134.336 146.663 137.459L139.378 144.1C135.454 147.678 134.717 153.311 137.744 156.589C140.973 160.086 147.071 159.416 150.796 155.155Z" fill="white"/>
<path d="M150.796 155.155L157.28 147.737C160.331 144.247 160.524 139.429 157.72 136.72C154.92 134.013 150.087 134.336 146.663 137.459L139.378 144.1C135.454 147.678 134.717 153.311 137.744 156.589C140.973 160.086 147.071 159.416 150.796 155.155Z" fill="white"/>
<path d="M133.796 138.155L140.279 130.737C143.331 127.247 143.524 122.429 140.72 119.72C137.92 117.013 133.087 117.336 129.663 120.459L122.378 127.1C118.454 130.678 117.717 136.311 120.744 139.589C123.973 143.086 130.071 142.416 133.796 138.155Z" fill="white"/>
<path d="M133.796 138.155L140.279 130.737C143.331 127.247 143.524 122.429 140.72 119.72C137.92 117.013 133.087 117.336 129.663 120.459L122.378 127.1C118.454 130.678 117.717 136.311 120.744 139.589C123.973 143.086 130.071 142.416 133.796 138.155Z" fill="white"/>
</svg>
