<svg width="1436" height="1024" viewBox="0 0 1436 1024" fill="none" xmlns="http://www.w3.org/2000/svg"><rect width="1024" height="1024" transform="translate(206)" fill="#121212" rx="50%"/><path d="m606.356 386.814 298.292 5.188-5.187-62.253c-103.322.433-310.225 1.816-311.262 3.891-48.765 19.713-130.99 119.749-166.007 167.303 15.131 13.834 46.69 39.946 51.877 33.72 15.563-54.989 94.676-121.478 132.287-147.849m223.071 251.073-298.292-5.188 5.187 62.253c103.322-.433 310.225-1.816 311.262-3.891 48.765-19.713 130.99-119.749 166.006-167.303-15.13-13.834-46.689-39.946-51.876-33.72-15.563 54.989-94.676 121.478-132.287 147.849" fill="#fff"/><path d="m781.966 526.97-25.824-24.957-53.217 48.516 30.024 32.516z" fill="#fff"/><path d="m781.966 526.97-25.824-24.957-53.217 48.516 30.024 32.516zm-44.095-44.095-25.824-24.958-53.217 48.517 30.024 32.516z" fill="#fff"/><path d="m737.871 482.875-25.824-24.958-53.217 48.517 30.024 32.516z" fill="#fff"/></svg>