<svg width="275" height="148" viewBox="0 0 275 148" fill="none" xmlns="http://www.w3.org/2000/svg">
<path d="M114.511 26.8393L196.881 28.2719C203.903 28.394 209.493 22.4233 208.91 15.4245C208.396 9.25648 203.245 4.5195 197.055 4.55037C170.515 4.68276 133.95 4.93565 110.64 5.28952C96.0221 5.51142 80.3624 9.15637 69.4602 18.896C58.145 29.0045 45.9086 42.8602 36.165 54.8426C29.0479 63.5951 31.1367 80.1046 41.8528 83.6297C44.7899 84.5959 44.362 81.9355 45.5646 79.087C51.4893 65.0525 66.4898 49.7355 79.6309 38.5091C89.2737 30.2713 101.83 26.6188 114.511 26.8393Z" fill="#213547"/>
<path d="M171.244 123.126L79.1184 121.524C72.0964 121.402 66.5059 127.372 67.0891 134.371C67.6031 140.539 72.7544 145.276 78.9437 145.245C110.355 145.088 155.807 144.763 176.71 144.301C184.018 144.14 191.852 142.378 197.759 138.072C211.16 128.304 227.495 110.126 239.834 94.9529C246.951 86.2004 244.862 69.691 234.146 66.1659C231.209 65.1997 231.637 67.86 230.434 70.7086C223.329 87.5389 203.172 106.214 188.822 117.466C183.832 121.379 177.584 123.236 171.244 123.126Z" fill="#213547"/>
<path d="M150.796 94.1547L157.28 86.7374C160.331 83.2466 160.524 78.429 157.72 75.7197C154.92 73.0133 150.087 73.3362 146.663 76.4586L139.378 83.1001C135.454 86.6776 134.717 92.3106 137.744 95.5893C140.973 99.0861 147.071 98.4158 150.796 94.1547Z" fill="#213547"/>
<path d="M150.796 94.1547L157.28 86.7374C160.331 83.2466 160.524 78.429 157.72 75.7197C154.92 73.0133 150.087 73.3362 146.663 76.4586L139.378 83.1001C135.454 86.6776 134.717 92.3106 137.744 95.5893C140.973 99.0861 147.071 98.4158 150.796 94.1547Z" fill="#213547"/>
<path d="M133.796 77.1547L140.279 69.7374C143.331 66.2466 143.524 61.429 140.72 58.7197C137.92 56.0133 133.087 56.3362 129.663 59.4586L122.378 66.1001C118.454 69.6776 117.717 75.3106 120.744 78.5893C123.973 82.0861 130.071 81.4158 133.796 77.1547Z" fill="#213547"/>
<path d="M133.796 77.1547L140.279 69.7374C143.331 66.2466 143.524 61.429 140.72 58.7197C137.92 56.0133 133.087 56.3362 129.663 59.4586L122.378 66.1001C118.454 69.6776 117.717 75.3106 120.744 78.5893C123.973 82.0861 130.071 81.4158 133.796 77.1547Z" fill="#213547"/>
</svg>
