<svg width="988" height="660" viewBox="0 0 988 660" fill="none" xmlns="http://www.w3.org/2000/svg">
<path d="M334.728 151.409L760.274 158.81L752.874 70C605.474 70.6167 310.306 72.5903 308.825 75.5506C239.258 103.674 121.955 246.386 71.9998 314.226C93.5855 333.962 138.607 371.213 146.008 362.332C168.21 283.883 281.072 189.03 334.728 151.409Z" fill="white"/>
<path d="M652.963 509.591L227.417 502.19L234.818 591C382.217 590.383 677.386 588.41 678.866 585.449C748.433 557.326 865.736 414.614 915.692 346.774C894.106 327.038 849.084 289.787 841.684 298.668C819.481 377.117 706.619 471.97 652.963 509.591Z" fill="white"/>
<path d="M585.255 351.357L548.415 315.752L472.495 384.967L515.328 431.354L585.255 351.357Z" fill="white"/>
<path d="M585.255 351.357L548.415 315.752L472.495 384.967L515.328 431.354L585.255 351.357Z" fill="white"/>
<path d="M522.348 288.45L485.508 252.845L409.588 322.06L452.42 368.447L522.348 288.45Z" fill="white"/>
<path d="M522.348 288.45L485.508 252.845L409.588 322.06L452.42 368.447L522.348 288.45Z" fill="white"/>
</svg>
