<svg width="1024" height="1024" viewBox="0 0 1024 1024" fill="none" xmlns="http://www.w3.org/2000/svg">
<rect width="1024" height="1024" fill="#121212"/>
<path d="M400.143 387.132L698.436 392.32L693.249 330.068C589.927 330.5 383.024 331.883 381.987 333.958C333.222 353.672 250.997 453.708 215.98 501.262C231.111 515.095 262.669 541.207 267.857 534.982C283.42 479.992 362.533 413.503 400.143 387.132Z" fill="white"/>
<path d="M623.215 638.205L324.922 633.018L330.11 695.27C433.432 694.838 640.335 693.454 641.372 691.379C690.136 671.666 772.362 571.63 807.379 524.076C792.248 510.242 760.689 484.131 755.502 490.356C739.938 545.346 660.826 611.835 623.215 638.205Z" fill="white"/>
<path d="M575.754 527.289L549.93 502.331L496.713 550.848L526.737 583.364L575.754 527.289Z" fill="white"/>
<path d="M575.754 527.289L549.93 502.331L496.713 550.848L526.737 583.364L575.754 527.289Z" fill="white"/>
<path d="M531.658 483.193L505.835 458.236L452.618 506.752L482.642 539.268L531.658 483.193Z" fill="white"/>
<path d="M531.658 483.193L505.835 458.236L452.618 506.752L482.642 539.268L531.658 483.193Z" fill="white"/>
</svg>
