<svg width="1436" height="1024" viewBox="0 0 1436 1024" fill="none" xmlns="http://www.w3.org/2000/svg">
<rect width="1024" height="1024" transform="translate(206)" fill="#121212"/>
<path d="M606.356 386.814L904.648 392.002L899.461 329.749C796.139 330.182 589.236 331.565 588.199 333.64C539.434 353.353 457.209 453.389 422.192 500.943C437.323 514.777 468.882 540.889 474.069 534.663C489.632 479.674 568.745 413.185 606.356 386.814Z" fill="white"/>
<path d="M829.427 637.887L531.135 632.699L536.322 694.952C639.644 694.519 846.547 693.136 847.584 691.061C896.349 671.348 978.574 571.312 1013.59 523.758C998.46 509.924 966.901 483.812 961.714 490.038C946.151 545.027 867.038 611.516 829.427 637.887Z" fill="white"/>
<path d="M781.966 526.97L756.142 502.013L702.925 550.529L732.949 583.045L781.966 526.97Z" fill="white"/>
<path d="M781.966 526.97L756.142 502.013L702.925 550.529L732.949 583.045L781.966 526.97Z" fill="white"/>
<path d="M737.871 482.875L712.047 457.917L658.83 506.434L688.854 538.95L737.871 482.875Z" fill="white"/>
<path d="M737.871 482.875L712.047 457.917L658.83 506.434L688.854 538.95L737.871 482.875Z" fill="white"/>
</svg>
