<svg width="2058" height="516" viewBox="0 0 2058 516" fill="none" xmlns="http://www.w3.org/2000/svg">
<path d="M113.591 394.5H370.046L498.274 266.273M28.5005 249.727L155.546 119.136H421.455" stroke="black" stroke-width="45"/>
<path d="M319.683 231.5L239.683 312M287.183 200.5L207.683 280" stroke="black" stroke-width="32"/>
<path d="M686.834 388.961V120.461L781.998 256.961L885.498 120.461V388.961M957.498 388.961V120.461M1027 388.961V120.461L1201 394.461V120.461M1276.5 120.461H1423.94L1276.5 395.516M1503.17 120.461V395.539M1579.94 120.461L1665.17 252.461M1752.92 388.961L1665.17 252.461M1665.17 252.461L1752.92 120.989M1831.94 388.961L1863.94 256.961M2032.46 388.961L1969.94 256.961M1969.94 256.961L1901.5 120.461L1863.94 256.961M1969.94 256.961H1863.94" stroke="black" stroke-width="38" stroke-linecap="square" stroke-linejoin="round"/>
</svg>
